<svg version="1.2" baseProfile="tiny" viewBox="0 0 16 16" xmlns:xlink="http://www.w3.org/1999/xlink" xmlns="http://www.w3.org/2000/svg">
<path style="fill:#ffffff;" d="M1.25,14.75H14.75V1.25H1.25V14.75ZM3.667,3.564C3.753,3.478,3.891,3.478,3.977,3.564L8.103,7.69L12.213,3.58C12.299,3.494,12.437,3.494,12.523,3.58C12.609,3.666,12.609,3.804,12.523,3.89L8.413,8L12.539,12.126C12.625,12.212,12.625,12.35,12.539,12.436C12.496,12.479,12.44,12.5,12.384,12.5C12.328,12.5,12.272,12.479,12.229,12.436L8.103,8.31L4.01,12.402C3.967,12.445,3.911,12.466,3.855,12.466C3.799,12.466,3.743,12.445,3.7,12.402C3.614,12.316,3.614,12.178,3.7,12.092L7.793,8L3.667,3.874C3.582,3.788,3.582,3.65,3.667,3.564Z"/>
</svg>