<svg version="1.2" baseProfile="tiny" viewBox="0 0 13.863 14.0" xmlns:xlink="http://www.w3.org/1999/xlink" xmlns="http://www.w3.org/2000/svg">
<path style="fill:#ffffff;" d="M10.734,6.754c-0.178-0.027-0.358-0.045-0.543-0.045c-0.083,0-0.165,0.007-0.246,0.012
		c-1.821,0.122-3.273,1.579-3.387,3.402c-0.005,0.077-0.012,0.153-0.012,0.231c0,0.178,0.017,0.351,0.041,0.521
		c0.059,0.411,0.185,0.8,0.369,1.154c0.112,0.216,0.245,0.42,0.397,0.609C8.021,13.468,9.044,14,10.191,14
		c2.013,0,3.645-1.632,3.645-3.645C13.837,8.526,12.489,7.017,10.734,6.754z"/>
</svg>