<svg version="1.2" baseProfile="tiny" viewBox="0 0 16.0 16.0" xmlns:xlink="http://www.w3.org/1999/xlink" xmlns="http://www.w3.org/2000/svg">
<path style="fill:#ffffff;" d="M8.43928 0.863001L15.8973 14.625C16.1393 15.103 15.9413 15.496 15.4553 15.496H0.543284C0.059284 15.496 -0.138716 15.103 0.103284 14.625L7.55928 0.863001C7.80128 0.385001 8.19828 0.385001 8.43928 0.863001ZM8.03927 10.8858C7.64925 10.8858 7.33464 10.5671 7.33464 10.175V5.64236C7.33464 5.2489 7.65055 4.93151 8.03927 4.93151C8.42928 4.93151 8.74389 5.25021 8.74389 5.64236V10.1737C8.74389 10.5671 8.42798 10.8858 8.03927 10.8858ZM7.58425 12.566C8.07827 12.3365 8.66719 12.5542 8.89469 13.0526C9.1235 13.5497 8.90899 14.1425 8.41498 14.3733C7.92226 14.6042 7.33334 14.3878 7.10454 13.8894C6.87703 13.3897 7.09154 12.7982 7.58425 12.566Z"/>
</svg>