<svg width="16" height="16" viewBox="0 0 16 16" fill="none" xmlns="http://www.w3.org/2000/svg">
<path d="m 15.7618,7.42501 c 0.3176,0.31756 0.3176,0.83242 0,1.14998 L 8.57499,15.7618 c -0.31756,0.3176 -0.83242,0.3176 -1.14998,0 L 0.238169,8.57499 C -0.0793891,8.25743 -0.0793898,7.74257 0.238168,7.42501 L 7.42501,0.238169 c 0.31756,-0.3175581 0.83242,-0.3175588 1.14998,-1e-6 z m -7.01158,1.389 V 4.2278 c 0,-0.3841 -0.30815,-0.69627 -0.69017,-0.69627 -0.38073,0 -0.69016,0.31088 -0.69016,0.69627 v 4.5875 c 0,0.3841 0.30815,0.69627 0.69016,0.69627 0.38074,0 0.69017,-0.31217 0.69017,-0.69756 z M 7.1445,12.4535 c 0.22411,0.4881 0.80095,0.7001 1.28356,0.474 C 8.91194,12.7014 9.12205,12.1208 8.89793,11.6339 8.67509,11.1457 8.09826,10.9325 7.61437,11.1573 7.13177,11.3847 6.92166,11.964 7.1445,12.4535 Z" fill="#f89800"/>
<path d="M7.36987 8.81529C7.36987 9.1994 7.67803 9.51156 8.06004 9.51156C8.44078 9.51156 8.75021 9.1994 8.75021 8.81401V4.2278C8.75021 3.84369 8.44205 3.53152 8.06004 3.53152C7.6793 3.53152 7.36987 3.84241 7.36987 4.2278V8.81529Z M8.89792 11.6339C8.67508 11.1457 8.09824 10.9325 7.61436 11.1573C7.13175 11.3847 6.92165 11.964 7.14449 12.4535C7.3686 12.9416 7.94544 13.1536 8.42804 12.9275C8.91193 12.7014 9.12203 12.1208 8.89792 11.6339Z" fill="#ffffff"/>
</svg>
