<svg version="1.2" baseProfile="tiny" viewBox="0 0 14.443 18.000" xmlns:xlink="http://www.w3.org/1999/xlink" xmlns="http://www.w3.org/2000/svg">
<path style="fill:#ffffff;" d="M8.932,17.153h2.472C11.212,17.648,10.73,18,10.167,18S9.122,17.648,8.932,17.153z M14.188,16.053   l-0.213-0.279c-0.396-0.518-0.66-0.916-0.789-1.196c-0.499-1.104-0.044-2.427-0.793-3.5c-0.102-0.145-0.214-0.272-0.334-0.388   c-0.083-0.076-0.185-0.126-0.278-0.188c-0.265-0.179-0.557-0.315-0.898-0.384c-0.089-0.017-0.174-0.044-0.271-0.054   c0-0.208-0.068-0.342-0.193-0.414c-0.068-0.039-0.147-0.066-0.251-0.066c-0.296,0-0.447,0.161-0.447,0.48   c-0.773,0.081-1.365,0.419-1.777,1.014c-0.665,0.952-0.39,2.094-0.665,3.108c-0.016,0.068-0.045,0.133-0.065,0.2   c-0.022,0.063-0.038,0.128-0.067,0.191c-0.09,0.201-0.254,0.465-0.483,0.785c-0.083,0.121-0.179,0.251-0.284,0.388   c-0.008,0.008-0.014,0.015-0.019,0.023l-0.211,0.279c-0.172,0.222-0.259,0.431-0.259,0.624h8.555   C14.443,16.483,14.358,16.274,14.188,16.053z M1.365,14.386h3.838c-0.07,0.099-0.147,0.202-0.244,0.327l-0.204,0.271   c-0.189,0.248-0.334,0.504-0.435,0.767H0V0h6.608l0.484,0.204l4.492,4.562l0.196,0.476v3.268c-0.341-0.367-0.813-0.599-1.363-0.653   V6.908H5.012V1.363H1.365V14.386z M6.379,5.542h4.039L6.379,1.418V5.542z"/>
</svg>