<svg version="1.2" baseProfile="tiny" viewBox="0 0 13.863 14.0" xmlns:xlink="http://www.w3.org/1999/xlink" xmlns="http://www.w3.org/2000/svg">
<path style="fill:#ffffff;" d="M6.597,13.1c-0.796-0.076-1.451-0.615-1.623-1.353h0.909
		c-0.092-0.284-0.156-0.579-0.191-0.884H0.92c0.041-0.558,0.256-1.592,1.254-2.303C2.968,7.993,3.046,6.855,3.127,5.65
		c0.007-0.095,0.013-0.253,0.021-0.43L3.15,5.169c0,0,0.001-0.037,0.001-0.037c0.01-0.256,0.025-0.606,0.037-0.729
		c0.001-0.013,0.002-0.027,0.003-0.04C3.21,4.039,3.265,3.71,3.363,3.35l0.045-0.176c0.008-0.036,0.018-0.073,0.037-0.129
		c0.023-0.066,0.049-0.133,0.084-0.214c0.028-0.07,0.061-0.142,0.097-0.213l0.025-0.044c0.052-0.098,0.1-0.179,0.153-0.255
		c0.114-0.171,0.259-0.337,0.438-0.505l0.076-0.067c0.129-0.115,0.274-0.222,0.471-0.345l0.037-0.023
		C4.89,1.341,4.963,1.304,5.053,1.261c0.058-0.028,0.118-0.053,0.179-0.077c0.26-0.106,0.538-0.185,0.823-0.234
		c0.089-0.015,0.182-0.026,0.329-0.043C6.408,0.904,6.431,0.902,6.453,0.9c0.093-0.008,0.194-0.012,0.333-0.015
		C6.927,0.888,7.028,0.892,7.119,0.9c0.024,0.002,0.049,0.005,0.089,0.01c0.128,0.014,0.221,0.026,0.306,0.04
		c0.289,0.049,0.567,0.128,0.828,0.235c0.059,0.024,0.119,0.049,0.178,0.077C8.611,1.304,8.683,1.34,8.747,1.377L8.799,1.41
		c0.184,0.115,0.33,0.222,0.461,0.339l0.055,0.048c0.198,0.185,0.343,0.351,0.469,0.54c0.042,0.06,0.089,0.139,0.151,0.256
		l0.014,0.024c0.037,0.074,0.068,0.143,0.096,0.212c0.004,0.01,0.008,0.021,0.013,0.031c0.025,0.056,0.05,0.122,0.071,0.179
		c0.019,0.054,0.029,0.092,0.044,0.156l0.043,0.164c0.095,0.352,0.15,0.681,0.168,1.006c0.001,0.013,0.002,0.026,0.003,0.039
		c0.012,0.122,0.026,0.472,0.038,0.747L10.426,5.2c0.007,0.184,0.014,0.35,0.021,0.448c0.004,0.064,0.009,0.127,0.014,0.191
		c0.308,0.018,0.608,0.067,0.897,0.144c-0.01-0.13-0.019-0.262-0.028-0.395c-0.006-0.093-0.013-0.25-0.02-0.424L11.307,5.11
		c-0.012-0.302-0.026-0.644-0.041-0.794c-0.021-0.388-0.086-0.777-0.198-1.188l-0.04-0.155c-0.016-0.07-0.033-0.132-0.063-0.221
		c-0.032-0.089-0.066-0.176-0.099-0.25c-0.039-0.097-0.083-0.195-0.136-0.3L10.705,2.16c-0.069-0.13-0.134-0.239-0.198-0.33
		c-0.152-0.23-0.339-0.445-0.59-0.679L9.846,1.087C9.677,0.937,9.494,0.802,9.268,0.66C9.241,0.643,9.214,0.626,9.189,0.611
		c-0.084-0.048-0.176-0.096-0.29-0.149C8.825,0.427,8.75,0.395,8.676,0.365c-0.32-0.13-0.66-0.227-1.012-0.287
		c-0.103-0.017-0.209-0.03-0.356-0.047C7.27,0.026,7.232,0.022,7.195,0.019C7.082,0.009,6.961,0.003,6.786,0
		C6.614,0.003,6.492,0.009,6.379,0.019C6.342,0.022,6.304,0.026,6.267,0.031C6.119,0.048,6.013,0.061,5.91,0.078
		c-0.352,0.06-0.693,0.157-1.012,0.287c-0.075,0.03-0.15,0.062-0.223,0.097C4.56,0.516,4.468,0.564,4.385,0.611
		C4.36,0.626,4.333,0.643,4.305,0.661C4.079,0.802,3.896,0.938,3.728,1.087L3.655,1.152C3.407,1.384,3.22,1.599,3.067,1.829
		c-0.064,0.092-0.128,0.2-0.198,0.33L2.844,2.204c-0.05,0.099-0.096,0.2-0.135,0.297C2.675,2.579,2.641,2.666,2.61,2.753
		C2.577,2.847,2.561,2.911,2.547,2.972l-0.04,0.155C2.395,3.54,2.33,3.928,2.309,4.314C2.294,4.466,2.28,4.808,2.267,5.11
		L2.267,5.132C2.259,5.319,2.252,5.489,2.245,5.588C2.178,6.58,2.114,7.516,1.661,7.839c-1.814,1.292-1.635,3.41-1.626,3.498
		c0.037,0.392,0.351,0.49,0.729,0.49h3.318C4.307,13.059,5.432,14,6.787,14c0.216,0,0.423-0.032,0.625-0.077
		C7.106,13.684,6.833,13.408,6.597,13.1z"/>
</svg>