<svg version="1.2" baseProfile="tiny" viewBox="0 0 13.863 14.0" xmlns:xlink="http://www.w3.org/1999/xlink" xmlns="http://www.w3.org/2000/svg">
<path style="fill:#ffffff;" d="M11.578,11.22c0.078,0.078,0.109,0.183,0.1,0.285c-0.007,0.082-0.037,0.163-0.1,0.226
		c-0.141,0.141-0.37,0.141-0.511,0L10.2,10.863l-0.867,0.867c-0.141,0.141-0.37,0.141-0.511,0c-0.063-0.063-0.093-0.144-0.1-0.226
		c-0.008-0.102,0.022-0.207,0.1-0.285l0.867-0.867L8.826,9.49c-0.141-0.141-0.141-0.37,0-0.511C8.962,8.843,9.179,8.841,9.32,8.968
		c0.005,0.005,0.012,0.006,0.016,0.011L10.2,9.842l0.863-0.863c0.005-0.005,0.011-0.006,0.016-0.011
		c0.142-0.127,0.358-0.125,0.494,0.011c0.141,0.141,0.141,0.37,0,0.511l-0.863,0.863L11.578,11.22z"/>
</svg>