<svg version="1.2" baseProfile="tiny" viewBox="0 0 16.0 16.0" xmlns:xlink="http://www.w3.org/1999/xlink" xmlns="http://www.w3.org/2000/svg">
<path style="fill:#ffffff;" d="M8.57499 0.238168C8.25743 -0.0793898 7.74257 -0.0793891 7.42501 0.238169L0.238168 7.42501C-0.0793898 7.74257 -0.0793891 8.25743 0.238169 8.57499L7.42501 15.7618C7.74257 16.0794 8.25743 16.0794 8.57499 15.7618L15.7618 8.57499C16.0794 8.25743 16.0794 7.74257 15.7618 7.42501L8.57499 0.238168ZM8.06005 9.51157C7.67804 9.51157 7.36989 9.1994 7.36989 8.8153V4.2278C7.36989 3.84241 7.67932 3.53153 8.06005 3.53153C8.44207 3.53153 8.75022 3.8437 8.75022 4.2278V8.81401C8.75022 9.1994 8.44079 9.51157 8.06005 9.51157ZM7.61437 11.1573C8.09826 10.9325 8.67509 11.1457 8.89793 11.6339C9.12205 12.1208 8.91194 12.7014 8.42806 12.9275C7.94545 13.1536 7.36861 12.9416 7.1445 12.4535C6.92166 11.964 7.13177 11.3847 7.61437 11.1573Z"/>
</svg>