<svg version="1.2" baseProfile="tiny" viewBox="0 0 16.0 16.0" xmlns:xlink="http://www.w3.org/1999/xlink" xmlns="http://www.w3.org/2000/svg">
<path style="fill:#ffffff;" d="M12.406 8.375H3.59399C3.38699 8.375 3.21899 8.207 3.21899 8C3.21899 7.793 3.38699 7.625 3.59399 7.625H12.405C12.612 7.625 12.78 7.793 12.78 8C12.78 8.207 12.613 8.375 12.406 8.375Z M8 0C3.589 0 0 3.589 0 8C0 12.411 3.589 16 8 16C12.411 16 16 12.411 16 8C16 3.589 12.411 0 8 0ZM8 15.196C4.032 15.196 0.804 11.968 0.804 8C0.804 4.032 4.032 0.804 8 0.804C11.968 0.804 15.196 4.032 15.196 8C15.196 11.968 11.968 15.196 8 15.196Z"/>
</svg>