<svg version="1.2" baseProfile="tiny" viewBox="0 0 16.0 16.0" xmlns:xlink="http://www.w3.org/1999/xlink" xmlns="http://www.w3.org/2000/svg">
<path style="fill:#ffffff;" d="M8 15.196C4.032 15.196 0.804001 11.968 0.804001 8C0.804001 4.032 4.032 0.804001 8 0.804001C11.968 0.804001 15.196 4.032 15.196 8C15.196 11.968 11.968 15.196 8 15.196ZM6.394 10.965L11.315 4.147C11.445 3.967 11.696 3.926 11.877 4.055C12.057 4.185 12.098 4.437 11.968 4.617L6.746 11.852C6.673 11.953 6.559 12.014 6.435 12.019H6.419C6.301 12.019 6.189 11.968 6.112 11.877L4.052 9.443C3.908 9.274 3.929 9.02 4.099 8.877C4.269 8.733 4.523 8.754 4.666 8.924L6.394 10.965Z"/>
</svg>