<svg version="1.2" baseProfile="tiny" viewBox="0 0 16 16" xmlns:xlink="http://www.w3.org/1999/xlink" xmlns="http://www.w3.org/2000/svg">
<path style="fill:#ffffff;" d="M0.75,0.75V15.25H15.25V0.75H0.75ZM14.75,14.75H1.25V1.25H14.75V14.75Z M12.405,3.37999C12.21,3.23899,11.936,3.28799,11.797,3.48399L6.09,11.538L4.188,9.17599C4.115,9.08499,4.011,9.02799,3.895,9.01499C3.781,9.00099,3.665,9.03599,3.573,9.10899C3.483,9.18199,3.425,9.28599,3.413,9.40299C3.4,9.51899,3.434,9.63299,3.507,9.72299L5.772,12.536C5.855,12.641,5.979,12.7,6.127,12.7C6.262,12.694,6.39,12.625,6.468,12.514L12.509,3.98899C12.648,3.79299,12.601,3.51999,12.405,3.37999Z"/>
</svg>