<svg version="1.2" baseProfile="tiny" viewBox="0 0 16.0 16.0" xmlns:xlink="http://www.w3.org/1999/xlink" xmlns="http://www.w3.org/2000/svg">
<path style="fill:#ffffff;" d="M11.315 4.147L6.394 10.965L4.666 8.924C4.523 8.754 4.269 8.733 4.099 8.877C3.929 9.02 3.908 9.274 4.052 9.443L6.112 11.877C6.189 11.968 6.301 12.019 6.419 12.019C6.424 12.019 6.429 12.019 6.435 12.019C6.559 12.014 6.673 11.953 6.746 11.852L11.968 4.617C12.098 4.437 12.057 4.185 11.877 4.055C11.696 3.926 11.445 3.967 11.315 4.147Z M8 0C3.589 0 0 3.589 0 8C0 12.411 3.589 16 8 16C12.411 16 16 12.411 16 8C16 3.589 12.411 0 8 0ZM8 15.196C4.032 15.196 0.805 11.968 0.805 8.001C0.805 4.033 4.033 0.805 8 0.805C11.968 0.805 15.196 4.033 15.196 8.001C15.196 11.968 11.968 15.196 8 15.196Z"/>
</svg>