<svg version="1.2" baseProfile="tiny" viewBox="0 0 16 16" xmlns:xlink="http://www.w3.org/1999/xlink" xmlns="http://www.w3.org/2000/svg">
<path style="fill:#ffffff;" d="M15.269,8C15.269,4.002,12.017,0.75,8.019,0.75C4.021,0.75,0.768997,4.002,0.768997,8C0.768997,11.998,4.021,15.25,8.019,15.25C12.017,15.25,15.269,11.998,15.269,8ZM4.469,8.969C3.934,8.969,3.5,8.535,3.5,8C3.5,7.465,3.934,7.031,4.469,7.031C5.004,7.031,5.438,7.465,5.438,8C5.438,8.535,5.005,8.969,4.469,8.969ZM8.193,8.969C7.657,8.969,7.223,8.535,7.223,8C7.223,7.465,7.657,7.031,8.192,7.031C8.727,7.031,9.161,7.465,9.161,8C9.161,8.535,8.728,8.969,8.193,8.969ZM11.531,8.969C10.996,8.969,10.562,8.535,10.562,8C10.562,7.465,10.996,7.031,11.531,7.031C12.066,7.031,12.5,7.465,12.5,8C12.5,8.535,12.066,8.969,11.531,8.969Z"/>
</svg>