<svg version="1.2" baseProfile="tiny" viewBox="0 0 16 16" xmlns:xlink="http://www.w3.org/1999/xlink" xmlns="http://www.w3.org/2000/svg">
<path style="fill:#ffffff;" d="M8.019,0.25C3.746,0.25,0.268997,3.727,0.268997,8C0.268997,12.273,3.746,15.75,8.019,15.75C12.292,15.75,15.769,12.273,15.769,8C15.769,3.727,12.293,0.25,8.019,0.25ZM0.768997,8C0.768997,4.002,4.021,0.75,8.019,0.75C12.017,0.75,15.269,4.002,15.269,8C15.269,11.998,12.017,15.25,8.019,15.25C4.021,15.25,0.768997,11.998,0.768997,8Z M4.469,8.96901C5.00416,8.96901,5.438,8.53517,5.438,8.00001C5.438,7.46484,5.00416,7.03101,4.469,7.03101C3.93384,7.03101,3.5,7.46484,3.5,8.00001C3.5,8.53517,3.93384,8.96901,4.469,8.96901Z M8.19299,7.03101C7.65699,7.03101,7.22299,7.46501,7.22299,8.00001C7.22299,8.53501,7.65699,8.96901,8.19199,8.96901C8.72699,8.96901,9.16099,8.53501,9.16099,8.00001C9.16099,7.46501,8.72799,7.03101,8.19299,7.03101Z M11.531,7.03101C10.996,7.03101,10.562,7.46501,10.562,8.00001C10.562,8.53501,10.996,8.96901,11.531,8.96901C12.066,8.96901,12.5,8.53501,12.5,8.00001C12.5,7.46501,12.066,7.03101,11.531,7.03101Z"/>
</svg>