<svg version="1.2" baseProfile="tiny" viewBox="0 0 18.000 18.000" xmlns:xlink="http://www.w3.org/1999/xlink" xmlns="http://www.w3.org/2000/svg">
<path style="fill:#ffffff;" d="M3.446,8.997c0-0.35-0.283-0.634-0.634-0.634c-0.352,0-0.639,0.284-0.639,0.634   c0,0.352,0.287,0.637,0.639,0.637C3.163,9.634,3.446,9.349,3.446,8.997z M15.869,8.997c0-0.35-0.287-0.634-0.637-0.634   c-0.353,0-0.637,0.284-0.637,0.634c0,0.352,0.284,0.637,0.637,0.637C15.582,9.634,15.869,9.349,15.869,8.997z M8.999,0   C4.028,0,0,4.029,0,9.001C0,13.972,4.028,18,8.999,18C13.971,18,18,13.972,18,9.001C18,4.029,13.971,0,8.999,0z M8.999,16.7   C4.748,16.7,1.3,13.254,1.3,9.001c0-4.254,3.448-7.699,7.699-7.699c4.252,0,7.7,3.445,7.7,7.699   C16.699,13.254,13.251,16.7,8.999,16.7z M8.93,3.407c0.348,0,0.632-0.286,0.632-0.636c0-0.354-0.284-0.637-0.632-0.637   c-0.354,0-0.639,0.283-0.639,0.637C8.291,3.121,8.575,3.407,8.93,3.407z M8.93,15.827c0.348,0,0.632-0.286,0.632-0.636   c0-0.354-0.284-0.637-0.632-0.637c-0.354,0-0.639,0.283-0.639,0.637C8.291,15.541,8.575,15.827,8.93,15.827z M8.068,9.191   c0-0.475,0.385-0.859,0.858-0.859c0.475,0,0.858,0.385,0.858,0.859c0,0.474-0.384,0.857-0.858,0.857   C8.453,10.049,8.068,9.665,8.068,9.191z M7.758,8.878L3.583,5.67C3.451,5.569,3.459,5.337,3.6,5.154   c0.138-0.183,0.362-0.248,0.494-0.147l4.147,3.187C8.005,8.357,7.836,8.592,7.758,8.878z M13.875,8.504   c0.033,0.229-0.074,0.432-0.236,0.453l-3.535,0.506c0.021-0.09,0.055-0.174,0.055-0.271c0-0.202-0.06-0.386-0.146-0.553l3.508-0.502   C13.685,8.113,13.845,8.277,13.875,8.504z"/>
</svg>