<svg version="1.2" baseProfile="tiny" viewBox="0 0 18.000 18.000" xmlns:xlink="http://www.w3.org/1999/xlink" xmlns="http://www.w3.org/2000/svg">
<path style="fill:#ffffff;" d="M0,0v18h18V0H0z M1.335,16.665V9.259l1.844,2.044c0.047,0.05,0.113,0.077,0.182,0.077L4,11.375   c0.099,0,0.188-0.059,0.229-0.153c0.038-0.091,0.02-0.192-0.045-0.264L2.978,9.599l2.845-0.001c0.138,0,0.249-0.111,0.249-0.249   V8.836c0-0.137-0.111-0.249-0.249-0.249L2.947,8.588l1.278-1.312c0.068-0.07,0.087-0.174,0.049-0.267   C4.237,6.917,4.149,6.857,4.051,6.855L3.374,6.838H3.367c-0.069,0-0.135,0.029-0.181,0.078L1.335,8.875v-7.54h15.33v7.692   c-0.01-0.018-0.008-0.042-0.022-0.057l-1.866-2.068c-0.047-0.049-0.113-0.077-0.183-0.077L13.951,6.83   c-0.097,0.002-0.186,0.062-0.225,0.153c-0.038,0.091-0.019,0.196,0.045,0.264l1.206,1.359l-2.845,0.002   c-0.137,0-0.248,0.111-0.248,0.249V9.37c0,0.138,0.111,0.249,0.248,0.249l2.875-0.001l-1.278,1.312   c-0.066,0.071-0.086,0.176-0.049,0.27c0.039,0.09,0.127,0.148,0.225,0.151l0.68,0.018c0.071,0,0.139-0.029,0.184-0.078l1.863-1.971   c0.021-0.021,0.021-0.053,0.033-0.079v7.424H1.335z"/>
</svg>