<svg version="1.2" baseProfile="tiny" id="EdgeSVG_cw6mp" x="0px" y="0px" width="101.44px" height="58.583px" viewBox="0 0 101.44 58.583" xmlns:xlink="http://www.w3.org/1999/xlink" xmlns="http://www.w3.org/2000/svg">
  <linearGradient id="SVGID_1_" gradientUnits="userSpaceOnUse" x1="0" y1="29.2915" x2="101.4399" y2="29.2915">
    <stop offset="0" style="stop-color:#000000;stop-opacity:0.5"/>
    <stop offset="1" style="stop-color:#000000;stop-opacity:0.5"/>
  </linearGradient>
  <path fill="url(#SVGID_1_)" d="M2.72,58.583c-1.5,0-2.72-1.22-2.72-2.72V2.72C0,1.22,1.22,0,2.72,0h96c1.5,0,2.72,1.22,2.72,2.72&#xD;&#xA;&#x9;v53.143c0,1.5-1.22,2.72-2.72,2.72H2.72z"/>
  <path fill="#FFFFFF" d="M100.72,55.863c0,1.1-0.9,2-2,2h-96c-1.1,0-2-0.9-2-2V2.72c0-1.1,0.9-2,2-2h96c1.1,0,2,0.9,2,2V55.863z"/>
  <path fill="#D53647" d="M100.72,2.72c0,1.208,0,2.396,0,2.396H43.254c-1.375,0-2.5-0.989-2.5-2.198c0-1.209,1.125-2.198,2.5-2.198&#xD;&#xA;&#x9;H98.72C99.923,0.72,100.72,1.642,100.72,2.72z"/>
  <rect x="40.754" y="9.512" fill="#D53647" width="59.966" height="4.395"/>
  <rect x="40.754" y="18.302" fill="#D53647" width="59.966" height="4.396"/>
  <rect x="40.754" y="27.093" fill="#D53647" width="59.966" height="4.396"/>
  <rect x="0.72" y="35.884" fill="#D53647" width="100" height="4.395"/>
  <rect x="0.72" y="44.675" fill="#D53647" width="100" height="4.395"/>
  <path fill="#D53647" d="M100.72,53.466h-100c0,0,0,1.188,0,2.397c0,1.045,0.731,2,2.106,2H98.72c1.328,0,2-1.143,2-2&#xD;&#xA;&#x9;C100.72,54.653,100.72,53.466,100.72,53.466z"/>
  <path fill="#003876" d="M2.72,0.72c-1.1,0-2,0.9-2,2v28.769h43.299V0.72H2.72z"/>
  <path fill="#FFFFFF" d="M4.701,3.268h1.271L4.941,4.003l0.393,1.215L4.308,4.469L3.282,5.218L3.68,4.013l-1.036-0.75h1.276&#xD;&#xA;&#x9;l0.388-1.206L4.701,3.268z M11.527,2.057l-0.388,1.206H9.863l1.036,0.75l-0.398,1.205l1.026-0.749l1.026,0.749L12.16,4.003&#xD;&#xA;&#x9;l1.031-0.735H11.92L11.527,2.057z M18.746,2.057l-0.388,1.206h-1.276l1.036,0.75L17.72,5.218l1.026-0.749l1.026,0.749l-0.393-1.215&#xD;&#xA;&#x9;l1.031-0.735h-1.271L18.746,2.057z M25.965,2.057l-0.388,1.206h-1.276l1.036,0.75l-0.398,1.205l1.026-0.749l1.026,0.749&#xD;&#xA;&#x9;l-0.393-1.215l1.031-0.735h-1.271L25.965,2.057z M33.184,2.057l-0.388,1.206h-1.276l1.036,0.75l-0.398,1.205l1.026-0.749&#xD;&#xA;&#x9;l1.027,0.749l-0.393-1.215l1.03-0.735h-1.271L33.184,2.057z M40.403,2.057l-0.388,1.206h-1.276l1.037,0.75l-0.398,1.205l1.026-0.749&#xD;&#xA;&#x9;l1.027,0.749l-0.394-1.215l1.031-0.735h-1.271L40.403,2.057z M4.308,8.176L3.919,9.382H2.644l1.036,0.75l-0.398,1.205l1.026-0.749&#xD;&#xA;&#x9;l1.026,0.749l-0.393-1.215l1.031-0.735H4.701L4.308,8.176z M11.527,8.176l-0.388,1.206H9.863l1.036,0.75l-0.398,1.205l1.026-0.749&#xD;&#xA;&#x9;l1.026,0.749l-0.393-1.215l1.031-0.735H11.92L11.527,8.176z M18.746,8.176l-0.388,1.206h-1.276l1.036,0.75l-0.398,1.205l1.026-0.749&#xD;&#xA;&#x9;l1.026,0.749l-0.393-1.215l1.031-0.735h-1.271L18.746,8.176z M25.965,8.176l-0.388,1.206h-1.276l1.036,0.75l-0.398,1.205&#xD;&#xA;&#x9;l1.026-0.749l1.026,0.749l-0.393-1.215l1.031-0.735h-1.271L25.965,8.176z M33.184,8.176l-0.388,1.206h-1.276l1.036,0.75&#xD;&#xA;&#x9;l-0.398,1.205l1.026-0.749l1.027,0.749l-0.393-1.215l1.03-0.735h-1.271L33.184,8.176z M40.403,8.176l-0.388,1.206h-1.276l1.037,0.75&#xD;&#xA;&#x9;l-0.398,1.205l1.026-0.749l1.027,0.749l-0.394-1.215l1.031-0.735h-1.271L40.403,8.176z M4.308,14.295l-0.388,1.206H2.644l1.036,0.75&#xD;&#xA;&#x9;l-0.398,1.205l1.026-0.749l1.026,0.749l-0.393-1.215l1.031-0.735H4.701L4.308,14.295z M11.527,14.295l-0.388,1.206H9.863l1.036,0.75&#xD;&#xA;&#x9;l-0.398,1.205l1.026-0.749l1.026,0.749l-0.393-1.215l1.031-0.735H11.92L11.527,14.295z M18.746,14.295l-0.388,1.206h-1.276&#xD;&#xA;&#x9;l1.036,0.75l-0.398,1.205l1.026-0.749l1.026,0.749l-0.393-1.215l1.031-0.735h-1.271L18.746,14.295z M25.965,14.295l-0.388,1.206&#xD;&#xA;&#x9;h-1.276l1.036,0.75l-0.398,1.205l1.026-0.749l1.026,0.749l-0.393-1.215l1.031-0.735h-1.271L25.965,14.295z M33.184,14.295&#xD;&#xA;&#x9;l-0.388,1.206h-1.276l1.036,0.75l-0.398,1.205l1.026-0.749l1.027,0.749l-0.393-1.215l1.03-0.735h-1.271L33.184,14.295z&#xD;&#xA;&#x9; M40.403,14.295l-0.388,1.206h-1.276l1.037,0.75l-0.398,1.205l1.026-0.749l1.027,0.749l-0.394-1.215l1.031-0.735h-1.271&#xD;&#xA;&#x9;L40.403,14.295z M4.308,20.414L3.919,21.62H2.644l1.036,0.75l-0.398,1.205l1.026-0.749l1.026,0.749L4.941,22.36l1.031-0.735H4.701&#xD;&#xA;&#x9;L4.308,20.414z M11.527,20.414l-0.388,1.206H9.863l1.036,0.75l-0.398,1.205l1.026-0.749l1.026,0.749L12.16,22.36l1.031-0.735H11.92&#xD;&#xA;&#x9;L11.527,20.414z M18.746,20.414l-0.388,1.206h-1.276l1.036,0.75l-0.398,1.205l1.026-0.749l1.026,0.749l-0.393-1.215l1.031-0.735&#xD;&#xA;&#x9;h-1.271L18.746,20.414z M25.965,20.414l-0.388,1.206h-1.276l1.036,0.75l-0.398,1.205l1.026-0.749l1.026,0.749l-0.393-1.215&#xD;&#xA;&#x9;l1.031-0.735h-1.271L25.965,20.414z M33.184,20.414l-0.388,1.206h-1.276l1.036,0.75l-0.398,1.205l1.026-0.749l1.027,0.749&#xD;&#xA;&#x9;l-0.393-1.215l1.03-0.735h-1.271L33.184,20.414z M40.403,20.414l-0.388,1.206h-1.276l1.037,0.75l-0.398,1.205l1.026-0.749&#xD;&#xA;&#x9;l1.027,0.749l-0.394-1.215l1.031-0.735h-1.271L40.403,20.414z M4.308,26.533l-0.388,1.206H2.644l1.036,0.75l-0.398,1.205&#xD;&#xA;&#x9;l1.026-0.749l1.026,0.749l-0.393-1.215l1.031-0.735H4.701L4.308,26.533z M11.527,26.533l-0.388,1.206H9.863l1.036,0.75l-0.398,1.205&#xD;&#xA;&#x9;l1.026-0.749l1.026,0.749l-0.393-1.215l1.031-0.735H11.92L11.527,26.533z M18.746,26.533l-0.388,1.206h-1.276l1.036,0.75&#xD;&#xA;&#x9;l-0.398,1.205l1.026-0.749l1.026,0.749l-0.393-1.215l1.031-0.735h-1.271L18.746,26.533z M25.965,26.533l-0.388,1.206h-1.276&#xD;&#xA;&#x9;l1.036,0.75l-0.398,1.205l1.026-0.749l1.026,0.749l-0.393-1.215l1.031-0.735h-1.271L25.965,26.533z M33.184,26.533l-0.388,1.206&#xD;&#xA;&#x9;h-1.276l1.036,0.75l-0.398,1.205l1.026-0.749l1.027,0.749l-0.393-1.215l1.03-0.735h-1.271L33.184,26.533z M40.403,26.533&#xD;&#xA;&#x9;l-0.388,1.206h-1.276l1.037,0.75l-0.398,1.205l1.026-0.749l1.027,0.749l-0.394-1.215l1.031-0.735h-1.271L40.403,26.533z&#xD;&#xA;&#x9; M7.917,23.492l-0.388,1.206H6.253l1.036,0.75l-0.398,1.205l1.026-0.749l1.026,0.749L8.55,25.438l1.031-0.735H8.311L7.917,23.492z&#xD;&#xA;&#x9; M15.137,23.492l-0.388,1.206h-1.276l1.037,0.75l-0.398,1.205l1.026-0.749l1.026,0.749l-0.393-1.215l1.031-0.735H15.53&#xD;&#xA;&#x9;L15.137,23.492z M22.356,23.492l-0.389,1.206h-1.276l1.037,0.75l-0.398,1.205l1.026-0.749l1.026,0.749l-0.394-1.215l1.031-0.735&#xD;&#xA;&#x9;h-1.271L22.356,23.492z M29.575,23.492l-0.388,1.206h-1.276l1.037,0.75l-0.399,1.205l1.026-0.749l1.027,0.749l-0.394-1.215&#xD;&#xA;&#x9;l1.031-0.735h-1.271L29.575,23.492z M36.794,23.492l-0.388,1.206h-1.276l1.037,0.75l-0.399,1.205l1.026-0.749l1.026,0.749&#xD;&#xA;&#x9;l-0.393-1.215l1.031-0.735h-1.271L36.794,23.492z M7.917,17.361l-0.388,1.206H6.253l1.036,0.75l-0.398,1.205l1.026-0.749&#xD;&#xA;&#x9;l1.026,0.749L8.55,19.307l1.031-0.735H8.311L7.917,17.361z M15.137,17.361l-0.388,1.206h-1.276l1.037,0.75l-0.398,1.205l1.026-0.749&#xD;&#xA;&#x9;l1.026,0.749l-0.393-1.215l1.031-0.735H15.53L15.137,17.361z M22.356,17.361l-0.389,1.206h-1.276l1.037,0.75l-0.398,1.205&#xD;&#xA;&#x9;l1.026-0.749l1.026,0.749l-0.394-1.215l1.031-0.735h-1.271L22.356,17.361z M29.575,17.361l-0.388,1.206h-1.276l1.037,0.75&#xD;&#xA;&#x9;l-0.399,1.205l1.026-0.749l1.027,0.749l-0.394-1.215l1.031-0.735h-1.271L29.575,17.361z M36.794,17.361l-0.388,1.206h-1.276&#xD;&#xA;&#x9;l1.037,0.75l-0.399,1.205l1.026-0.749l1.026,0.749l-0.393-1.215l1.031-0.735h-1.271L36.794,17.361z M7.917,11.229l-0.388,1.206&#xD;&#xA;&#x9;H6.253l1.036,0.75L6.891,14.39l1.026-0.749l1.026,0.749L8.55,13.175l1.031-0.735H8.311L7.917,11.229z M15.137,11.229l-0.388,1.206&#xD;&#xA;&#x9;h-1.276l1.037,0.75L14.11,14.39l1.026-0.749l1.026,0.749l-0.393-1.215l1.031-0.735H15.53L15.137,11.229z M22.356,11.229&#xD;&#xA;&#x9;l-0.389,1.206h-1.276l1.037,0.75L21.33,14.39l1.026-0.749l1.026,0.749l-0.394-1.215l1.031-0.735h-1.271L22.356,11.229z&#xD;&#xA;&#x9; M29.575,11.229l-0.388,1.206h-1.276l1.037,0.75l-0.399,1.205l1.026-0.749l1.027,0.749l-0.394-1.215l1.031-0.735h-1.271&#xD;&#xA;&#x9;L29.575,11.229z M36.794,11.229l-0.388,1.206h-1.276l1.037,0.75l-0.399,1.205l1.026-0.749l1.026,0.749l-0.393-1.215l1.031-0.735&#xD;&#xA;&#x9;h-1.271L36.794,11.229z M7.917,5.098L7.529,6.304H6.253l1.036,0.75L6.891,8.259L7.917,7.51l1.026,0.749L8.55,7.044l1.031-0.735&#xD;&#xA;&#x9;H8.311L7.917,5.098z M15.137,5.098l-0.388,1.206h-1.276l1.037,0.75L14.11,8.259l1.026-0.749l1.026,0.749L15.77,7.044l1.031-0.735&#xD;&#xA;&#x9;H15.53L15.137,5.098z M22.356,5.098l-0.389,1.206h-1.276l1.037,0.75L21.33,8.259l1.026-0.749l1.026,0.749l-0.394-1.215l1.031-0.735&#xD;&#xA;&#x9;h-1.271L22.356,5.098z M29.575,5.098l-0.388,1.206h-1.276l1.037,0.75l-0.399,1.205l1.026-0.749l1.027,0.749l-0.394-1.215&#xD;&#xA;&#x9;l1.031-0.735h-1.271L29.575,5.098z M36.794,5.098l-0.388,1.206h-1.276l1.037,0.75l-0.399,1.205l1.026-0.749l1.026,0.749&#xD;&#xA;&#x9;l-0.393-1.215l1.031-0.735h-1.271L36.794,5.098z"/>
</svg>