<svg version="1.2" baseProfile="tiny" viewBox="0 0 16 16" xmlns:xlink="http://www.w3.org/1999/xlink" xmlns="http://www.w3.org/2000/svg">
<path style="fill:#ffffff;" d="M6.40199,9.737H4.94199V12.032H6.40199V9.737Z M11.0464,3.95873L9.44644,3.96097L9.45775,12.04L11.0578,12.0377L11.0464,3.95873Z M6.40199,4.009H4.94199V6.304H6.40199V4.009Z M1.25,14.75H14.75V1.25H1.25V14.75ZM9.216,3.503L11.276,3.5C11.403,3.5,11.506,3.602,11.506,3.729L11.518,12.267C11.518,12.394,11.416,12.497,11.289,12.497L9.229,12.5C9.102,12.5,8.999,12.398,8.999,12.271L8.987,3.733C8.987,3.606,9.09,3.503,9.216,3.503ZM4.483,3.779C4.483,3.652,4.586,3.55,4.713,3.55H6.632C6.759,3.55,6.862,3.653,6.862,3.779V6.533C6.862,6.66,6.759,6.762,6.632,6.762H4.712C4.585,6.762,4.482,6.659,4.482,6.533V3.779H4.483ZM4.483,9.507C4.483,9.38,4.586,9.278,4.713,9.278H6.632C6.759,9.278,6.862,9.381,6.862,9.507V12.261C6.862,12.388,6.759,12.491,6.632,12.491H4.712C4.585,12.491,4.482,12.388,4.482,12.261V9.507H4.483Z"/>
</svg>