<svg version="1.2" baseProfile="tiny" viewBox="0 0 16 16" xmlns:xlink="http://www.w3.org/1999/xlink" xmlns="http://www.w3.org/2000/svg">
<path style="fill:#ffffff;" d="M0.75,0.75V15.25H15.25V0.75H0.75ZM14.75,14.75H1.25V1.25H14.75V14.75Z M11.706,3.72899C11.706,3.49299,11.513,3.29999,11.275,3.29999L9.21602,3.30299C9.10102,3.30299,8.99302,3.34799,8.91202,3.42899C8.83102,3.51099,8.78702,3.61799,8.78702,3.73299L8.79902,12.271C8.79902,12.508,8.99202,12.701,9.22902,12.701L11.287,12.698C11.524,12.698,11.717,12.505,11.717,12.267L11.706,3.72899ZM10.858,11.838L9.65802,11.84L9.64802,4.16099L10.848,4.15899L10.858,11.838Z M6.63201,3.34998H4.71201C4.47501,3.34998,4.28201,3.54198,4.28201,3.77998V6.53398C4.28201,6.77098,4.47501,6.96398,4.71201,6.96398H6.63101C6.86801,6.96398,7.06101,6.77198,7.06101,6.53398V3.77998C7.06201,3.54198,6.86901,3.34998,6.63201,3.34998ZM6.20201,4.20898V6.10398H5.14201V4.20898H6.20201Z M6.63201,9.077H4.71201C4.47501,9.077,4.28201,9.269,4.28201,9.507V12.261C4.28201,12.498,4.47501,12.691,4.71201,12.691H6.63101C6.86801,12.691,7.06101,12.499,7.06101,12.261V9.507C7.06201,9.27,6.86901,9.077,6.63201,9.077ZM6.20201,9.937V11.832H5.14201V9.937H6.20201Z"/>
</svg>