<svg version="1.2" baseProfile="tiny" viewBox="0 0 16 16" xmlns:xlink="http://www.w3.org/1999/xlink" xmlns="http://www.w3.org/2000/svg">
<path style="fill:#ffffff;" d="M6.40202,4.009H4.94202V6.304H6.40202V4.009Z M11.0465,3.95864L9.44653,3.96088L9.45784,12.0399L11.0578,12.0376L11.0465,3.95864Z M6.40202,9.737H4.94202V12.032H6.40202V9.737Z M8.039,0.75C4.041,0.75,0.789001,4.002,0.789001,8C0.789001,11.998,4.041,15.25,8.039,15.25C12.037,15.25,15.289,11.998,15.289,8C15.289,4.002,12.036,0.75,8.039,0.75ZM6.861,12.261C6.861,12.388,6.758,12.491,6.631,12.491H4.712C4.585,12.491,4.482,12.388,4.482,12.261V9.507C4.482,9.38,4.585,9.278,4.712,9.278H6.631C6.758,9.278,6.861,9.381,6.861,9.507V12.261V12.261ZM6.861,6.533C6.861,6.66,6.758,6.762,6.631,6.762H4.712C4.585,6.762,4.482,6.659,4.482,6.533V3.779C4.482,3.652,4.585,3.55,4.712,3.55H6.631C6.758,3.55,6.861,3.653,6.861,3.779V6.533V6.533ZM11.288,12.497L9.229,12.5C9.102,12.5,8.999,12.398,8.999,12.271L8.987,3.733C8.987,3.606,9.089,3.503,9.216,3.503L11.276,3.5C11.403,3.5,11.506,3.602,11.506,3.729L11.518,12.267C11.517,12.394,11.415,12.497,11.288,12.497Z"/>
</svg>