<svg version="1.2" baseProfile="tiny" viewBox="0 0 18.000 13.200" xmlns:xlink="http://www.w3.org/1999/xlink" xmlns="http://www.w3.org/2000/svg">
<path style="fill:#ffffff;" d="M15.678,1.722H9.762c0.194-0.682,0.315-1.542,1.429-1.542c1.813,0,1.244,0,3.06,0   C15.363,0.179,15.484,1.04,15.678,1.722z M18,3.611v8.298c0,0.717-0.592,1.291-1.307,1.291H1.307C0.593,13.2,0,12.625,0,11.909   V3.611c0-0.705,0.593-1.292,1.307-1.292h0.932C3.448,2.319,2.601,0,4.415,0c1.814,0,1.246,0,3.061,0   c1.718,0,1.064,2.068,2.008,2.294c0.048,0.013,0.109,0.025,0.182,0.025h7.028C17.408,2.319,18,2.906,18,3.611z M16.693,3.611H1.307   v8.298h15.387V3.611z"/>
</svg>