<svg version="1.2" baseProfile="tiny" viewBox="0 0 16 16" xmlns:xlink="http://www.w3.org/1999/xlink" xmlns="http://www.w3.org/2000/svg">
<path style="fill:#ffffff;" d="M8,0.759995C4.002,0.759995,0.75,4.01199,0.75,8.00999C0.75,12.008,4.003,15.26,8,15.26C11.997,15.26,15.25,12.008,15.25,8.00999C15.25,4.01199,11.998,0.759995,8,0.759995ZM10.778,10.851C10.037,11.592,9.052,12,8.005,12C6.958,12,5.973,11.592,5.232,10.851C3.789,9.40799,3.684,7.13899,4.988,5.57299C5.072,5.47299,5.221,5.45899,5.322,5.54199C5.422,5.62599,5.436,5.77499,5.353,5.87599C4.207,7.25299,4.299,9.24799,5.568,10.517C6.219,11.168,7.085,11.527,8.006,11.527C8.927,11.527,9.793,11.168,10.444,10.517C11.095,9.86599,11.454,8.99999,11.453,8.07899C11.453,7.15799,11.094,6.29199,10.443,5.64099C9.556,4.75399,8.293,4.42399,7.098,4.75099L8.234,5.44199C8.346,5.50999,8.381,5.65599,8.313,5.76799C8.269,5.84099,8.191,5.88099,8.111,5.88099C8.069,5.88099,8.027,5.86999,7.988,5.84699L6.368,4.86199C6.304,4.82299,6.262,4.75699,6.255,4.68199C6.248,4.60799,6.277,4.53499,6.332,4.48399L7.9,3.06199C7.997,2.97399,8.147,2.98099,8.235,3.07799C8.323,3.17499,8.316,3.32499,8.219,3.41299L7.334,4.21499C8.583,3.99499,9.858,4.38699,10.778,5.30599C12.307,6.835,12.307,9.32199,10.778,10.851Z"/>
</svg>