<svg version="1.2" baseProfile="tiny" viewBox="0 0 16 16" xmlns:xlink="http://www.w3.org/1999/xlink" xmlns="http://www.w3.org/2000/svg">
<path style="fill:#ffffff;" d="M8,0.259995C3.727,0.259995,0.25,3.73699,0.25,8.00999C0.25,12.283,3.727,15.76,8,15.76C12.273,15.76,15.75,12.283,15.75,8.00999C15.75,3.73699,12.274,0.259995,8,0.259995ZM8,15.26C4.002,15.26,0.75,12.008,0.75,8.00999C0.75,4.01199,4.003,0.759995,8,0.759995C11.997,0.759995,15.25,4.01199,15.25,8.00999C15.25,12.008,11.998,15.26,8,15.26Z M10.919,5.16401C10.117,4.36101,9.02,3.92401,7.916,3.95701L8.353,3.56101C8.53,3.39901,8.544,3.12201,8.382,2.94301C8.221,2.76401,7.944,2.75301,7.765,2.91401L6.199,4.33501C6.096,4.42701,6.043,4.56501,6.056,4.70001C6.068,4.83601,6.146,4.96101,6.264,5.03301L7.884,6.01701C8.082,6.13701,8.364,6.07001,8.484,5.87101C8.545,5.77101,8.563,5.65301,8.535,5.54001C8.507,5.42701,8.437,5.33101,8.338,5.27201L7.642,4.84801C8.621,4.73301,9.585,5.06701,10.301,5.78301C10.914,6.39501,11.252,7.21101,11.252,8.07901C11.252,8.94601,10.915,9.76201,10.301,10.375C9.687,10.989,8.871,11.327,8.004,11.327C7.137,11.327,6.321,10.989,5.708,10.375C4.513,9.18001,4.427,7.30001,5.505,6.00401C5.58,5.91401,5.615,5.80201,5.605,5.68601C5.595,5.57001,5.54,5.46401,5.45,5.38901C5.265,5.23401,4.989,5.25901,4.834,5.44501C3.463,7.09101,3.574,9.47701,5.09,10.993C5.869,11.771,6.903,12.2,8.004,12.2C9.105,12.2,10.14,11.77,10.919,10.992C11.696,10.215,12.124,9.18001,12.124,8.07801C12.124,6.97601,11.696,5.94201,10.919,5.16401Z"/>
</svg>