<svg version="1.2" baseProfile="tiny" viewBox="0 0 16 16" xmlns:xlink="http://www.w3.org/1999/xlink" xmlns="http://www.w3.org/2000/svg">
<path style="fill:#ffffff;" d="M5.70401,11.708L12.795,7.80799L5.70401,3.90799V11.708Z M8.00101,0.759995C4.00301,0.759995,0.751007,4.01199,0.751007,8.00999C0.751007,12.008,4.00301,15.26,8.00101,15.26C11.999,15.26,15.251,12.008,15.251,8.00999C15.251,4.01199,11.999,0.759995,8.00101,0.759995ZM13.365,8.00399L5.58801,12.281C5.55401,12.299,5.51801,12.309,5.48101,12.309C5.44201,12.309,5.40201,12.299,5.36701,12.278C5.29901,12.238,5.25801,12.165,5.25801,12.086V3.53099C5.25801,3.45199,5.30001,3.37899,5.36701,3.33899C5.43501,3.29899,5.51901,3.29799,5.58801,3.33599L13.365,7.61299C13.436,7.65199,13.481,7.72699,13.481,7.80799C13.481,7.88999,13.437,7.96399,13.365,8.00399Z"/>
</svg>