<svg version="1.2" baseProfile="tiny" viewBox="0 0 16 16" xmlns:xlink="http://www.w3.org/1999/xlink" xmlns="http://www.w3.org/2000/svg">
<path style="fill:#ffffff;" d="M12.036,3.96298H3.963V12.036H12.036V3.96298Z M8.039,0.759995C4.041,0.759995,0.789001,4.01199,0.789001,8.00999C0.789001,12.008,4.041,15.26,8.039,15.26C12.037,15.26,15.289,12.008,15.289,8.00999C15.289,4.01199,12.036,0.759995,8.039,0.759995ZM12.5,12.084C12.5,12.314,12.314,12.5,12.084,12.5H3.916C3.686,12.5,3.5,12.314,3.5,12.084V3.91599C3.5,3.68599,3.686,3.49999,3.916,3.49999H12.083C12.313,3.49999,12.499,3.68599,12.499,3.91599V12.084H12.5Z"/>
</svg>