<svg version="1.2" baseProfile="tiny" viewBox="0 0 16 16" xmlns:xlink="http://www.w3.org/1999/xlink" xmlns="http://www.w3.org/2000/svg">
<path style="fill:#ffffff;" d="M8.039,0.259995C3.766,0.259995,0.289001,3.73699,0.289001,8.00999C0.289001,12.283,3.766,15.76,8.039,15.76C12.312,15.76,15.789,12.283,15.789,8.00999C15.789,3.73699,12.312,0.259995,8.039,0.259995ZM8.039,15.26C4.041,15.26,0.789001,12.008,0.789001,8.00999C0.789001,4.01199,4.041,0.759995,8.039,0.759995C12.037,0.759995,15.289,4.01199,15.289,8.00999C15.289,12.008,12.036,15.26,8.039,15.26Z M12.084,3.29999H3.916C3.576,3.29999,3.3,3.57599,3.3,3.91599V12.084C3.3,12.424,3.576,12.7,3.916,12.7H12.083C12.423,12.7,12.7,12.424,12.7,12.084V3.91599C12.7,3.57599,12.423,3.29999,12.084,3.29999ZM11.837,4.16299V11.836H4.164V4.16299H11.837Z"/>
</svg>