<svg width="16" height="16" viewBox="0 0 16 16" fill="none" xmlns="http://www.w3.org/2000/svg">
<path d="M6.40199 9.737H4.94199V12.032H6.40199V9.737Z" fill="#7F7F7F"/>
<path d="M11.0464 3.95873L9.44644 3.96097L9.45775 12.04L11.0578 12.0377L11.0464 3.95873Z" fill="#7F7F7F"/>
<path d="M6.40199 4.009H4.94199V6.304H6.40199V4.009Z" fill="#7F7F7F"/>
<path d="M1.25 14.75H14.75V1.25H1.25V14.75ZM9.216 3.503L11.276 3.5C11.403 3.5 11.506 3.602 11.506 3.729L11.518 12.267C11.518 12.394 11.416 12.497 11.289 12.497L9.229 12.5C9.102 12.5 8.999 12.398 8.999 12.271L8.987 3.733C8.987 3.606 9.09 3.503 9.216 3.503ZM4.483 3.779C4.483 3.652 4.586 3.55 4.713 3.55H6.632C6.759 3.55 6.862 3.653 6.862 3.779V6.533C6.862 6.66 6.759 6.762 6.632 6.762H4.712C4.585 6.762 4.482 6.659 4.482 6.533V3.779H4.483ZM4.483 9.507C4.483 9.38 4.586 9.278 4.713 9.278H6.632C6.759 9.278 6.862 9.381 6.862 9.507V12.261C6.862 12.388 6.759 12.491 6.632 12.491H4.712C4.585 12.491 4.482 12.388 4.482 12.261V9.507H4.483Z" fill="#7F7F7F"/>
<path d="M0.75 0.75V15.25H15.25V0.75H0.75ZM14.75 14.75H1.25V1.25H14.75V14.75Z" fill="#444444"/>
<path d="M11.706 3.72899C11.706 3.49299 11.513 3.29999 11.275 3.29999L9.21602 3.30299C9.10102 3.30299 8.99302 3.34799 8.91202 3.42899C8.83102 3.51099 8.78702 3.61799 8.78702 3.73299L8.79902 12.271C8.79902 12.508 8.99202 12.701 9.22902 12.701L11.287 12.698C11.524 12.698 11.717 12.505 11.717 12.267L11.706 3.72899ZM10.858 11.838L9.65802 11.84L9.64802 4.16099L10.848 4.15899L10.858 11.838Z" fill="#444444"/>
<path d="M6.63201 3.34998H4.71201C4.47501 3.34998 4.28201 3.54198 4.28201 3.77998V6.53398C4.28201 6.77098 4.47501 6.96398 4.71201 6.96398H6.63101C6.86801 6.96398 7.06101 6.77198 7.06101 6.53398V3.77998C7.06201 3.54198 6.86901 3.34998 6.63201 3.34998ZM6.20201 4.20898V6.10398H5.14201V4.20898H6.20201Z" fill="#444444"/>
<path d="M6.63201 9.077H4.71201C4.47501 9.077 4.28201 9.269 4.28201 9.507V12.261C4.28201 12.498 4.47501 12.691 4.71201 12.691H6.63101C6.86801 12.691 7.06101 12.499 7.06101 12.261V9.507C7.06201 9.27 6.86901 9.077 6.63201 9.077ZM6.20201 9.937V11.832H5.14201V9.937H6.20201Z" fill="#444444"/>
</svg>
