<svg width="16" height="16" viewBox="0 0 16 16" fill="none" xmlns="http://www.w3.org/2000/svg">
<path d="M8 0.759995C4.002 0.759995 0.75 4.01199 0.75 8.00999C0.75 12.008 4.003 15.26 8 15.26C11.997 15.26 15.25 12.008 15.25 8.00999C15.25 4.01199 11.998 0.759995 8 0.759995ZM10.778 10.851C10.037 11.592 9.052 12 8.005 12C6.958 12 5.973 11.592 5.232 10.851C3.789 9.40799 3.684 7.13899 4.988 5.57299C5.072 5.47299 5.221 5.45899 5.322 5.54199C5.422 5.62599 5.436 5.77499 5.353 5.87599C4.207 7.25299 4.299 9.24799 5.568 10.517C6.219 11.168 7.085 11.527 8.006 11.527C8.927 11.527 9.793 11.168 10.444 10.517C11.095 9.86599 11.454 8.99999 11.453 8.07899C11.453 7.15799 11.094 6.29199 10.443 5.64099C9.556 4.75399 8.293 4.42399 7.098 4.75099L8.234 5.44199C8.346 5.50999 8.381 5.65599 8.313 5.76799C8.269 5.84099 8.191 5.88099 8.111 5.88099C8.069 5.88099 8.027 5.86999 7.988 5.84699L6.368 4.86199C6.304 4.82299 6.262 4.75699 6.255 4.68199C6.248 4.60799 6.277 4.53499 6.332 4.48399L7.9 3.06199C7.997 2.97399 8.147 2.98099 8.235 3.07799C8.323 3.17499 8.316 3.32499 8.219 3.41299L7.334 4.21499C8.583 3.99499 9.858 4.38699 10.778 5.30599C12.307 6.835 12.307 9.32199 10.778 10.851Z" fill="#EFEFEF"/>
<path d="M8 0.259995C3.727 0.259995 0.25 3.73699 0.25 8.00999C0.25 12.283 3.727 15.76 8 15.76C12.273 15.76 15.75 12.283 15.75 8.00999C15.75 3.73699 12.274 0.259995 8 0.259995ZM8 15.26C4.002 15.26 0.75 12.008 0.75 8.00999C0.75 4.01199 4.003 0.759995 8 0.759995C11.997 0.759995 15.25 4.01199 15.25 8.00999C15.25 12.008 11.998 15.26 8 15.26Z" fill="#5E5E5E"/>
<path d="M10.919 5.16401C10.117 4.36101 9.02 3.92401 7.916 3.95701L8.353 3.56101C8.53 3.39901 8.544 3.12201 8.382 2.94301C8.221 2.76401 7.944 2.75301 7.765 2.91401L6.199 4.33501C6.096 4.42701 6.043 4.56501 6.056 4.70001C6.068 4.83601 6.146 4.96101 6.264 5.03301L7.884 6.01701C8.082 6.13701 8.364 6.07001 8.484 5.87101C8.545 5.77101 8.563 5.65301 8.535 5.54001C8.507 5.42701 8.437 5.33101 8.338 5.27201L7.642 4.84801C8.621 4.73301 9.585 5.06701 10.301 5.78301C10.914 6.39501 11.252 7.21101 11.252 8.07901C11.252 8.94601 10.915 9.76201 10.301 10.375C9.687 10.989 8.871 11.327 8.004 11.327C7.137 11.327 6.321 10.989 5.708 10.375C4.513 9.18001 4.427 7.30001 5.505 6.00401C5.58 5.91401 5.615 5.80201 5.605 5.68601C5.595 5.57001 5.54 5.46401 5.45 5.38901C5.265 5.23401 4.989 5.25901 4.834 5.44501C3.463 7.09101 3.574 9.47701 5.09 10.993C5.869 11.771 6.903 12.2 8.004 12.2C9.105 12.2 10.14 11.77 10.919 10.992C11.696 10.215 12.124 9.18001 12.124 8.07801C12.124 6.97601 11.696 5.94201 10.919 5.16401Z" fill="#5E5E5E"/>
</svg>
