<svg width="16" height="16" viewBox="0 0 16 16" fill="none" xmlns="http://www.w3.org/2000/svg">
<path d="M12.036 3.96301H3.963V12.036H12.036V3.96301Z" fill="#7F7F7F"/>
<path d="M1.25 14.75H14.75V1.25H1.25V14.75ZM3.5 3.916C3.5 3.686 3.686 3.5 3.916 3.5H12.083C12.313 3.5 12.499 3.686 12.499 3.916V12.083C12.499 12.313 12.313 12.499 12.083 12.499H3.916C3.686 12.499 3.5 12.313 3.5 12.083V3.916Z" fill="#7F7F7F"/>
<path d="M0.75 0.75V15.25H15.25V0.75H0.75ZM14.75 14.75H1.25V1.25H14.75V14.75Z" fill="#444444"/>
<path d="M12.084 3.29999H3.916C3.576 3.29999 3.3 3.57599 3.3 3.91599V12.084C3.3 12.424 3.576 12.7 3.916 12.7H12.083C12.423 12.7 12.7 12.424 12.7 12.084V3.91599C12.7 3.57599 12.423 3.29999 12.084 3.29999ZM11.837 4.16299V11.836H4.164V4.16299H11.837Z" fill="#444444"/>
</svg>
