<svg width="16" height="16" viewBox="0 0 16 16" fill="none" xmlns="http://www.w3.org/2000/svg">
<path d="M6.40202 4.009H4.94202V6.304H6.40202V4.009Z" fill="#EFEFEF"/>
<path d="M11.0465 3.95864L9.44653 3.96088L9.45784 12.0399L11.0578 12.0376L11.0465 3.95864Z" fill="#EFEFEF"/>
<path d="M6.40202 9.737H4.94202V12.032H6.40202V9.737Z" fill="#EFEFEF"/>
<path d="M8.039 0.75C4.041 0.75 0.789001 4.002 0.789001 8C0.789001 11.998 4.041 15.25 8.039 15.25C12.037 15.25 15.289 11.998 15.289 8C15.289 4.002 12.036 0.75 8.039 0.75ZM6.861 12.261C6.861 12.388 6.758 12.491 6.631 12.491H4.712C4.585 12.491 4.482 12.388 4.482 12.261V9.507C4.482 9.38 4.585 9.278 4.712 9.278H6.631C6.758 9.278 6.861 9.381 6.861 9.507V12.261V12.261ZM6.861 6.533C6.861 6.66 6.758 6.762 6.631 6.762H4.712C4.585 6.762 4.482 6.659 4.482 6.533V3.779C4.482 3.652 4.585 3.55 4.712 3.55H6.631C6.758 3.55 6.861 3.653 6.861 3.779V6.533V6.533ZM11.288 12.497L9.229 12.5C9.102 12.5 8.999 12.398 8.999 12.271L8.987 3.733C8.987 3.606 9.089 3.503 9.216 3.503L11.276 3.5C11.403 3.5 11.506 3.602 11.506 3.729L11.518 12.267C11.517 12.394 11.415 12.497 11.288 12.497Z" fill="#EFEFEF"/>
<path d="M8.039 0.25C3.766 0.25 0.289001 3.727 0.289001 8C0.289001 12.273 3.766 15.75 8.039 15.75C12.312 15.75 15.789 12.273 15.789 8C15.789 3.727 12.312 0.25 8.039 0.25ZM8.039 15.25C4.041 15.25 0.789001 11.998 0.789001 8C0.789001 4.002 4.041 0.75 8.039 0.75C12.037 0.75 15.289 4.002 15.289 8C15.289 11.998 12.036 15.25 8.039 15.25Z" fill="#5E5E5E"/>
<path d="M11.706 3.72899C11.706 3.49299 11.513 3.29999 11.276 3.29999L9.21602 3.30299C9.10102 3.30299 8.99302 3.34799 8.91202 3.42899C8.83102 3.51099 8.78702 3.61799 8.78702 3.73299L8.79902 12.271C8.79902 12.508 8.99202 12.701 9.23002 12.701L11.288 12.698C11.525 12.698 11.718 12.505 11.718 12.267L11.706 3.72899ZM10.858 11.838L9.65802 11.84L9.64802 4.16099L10.848 4.15899L10.858 11.838Z" fill="#5E5E5E"/>
<path d="M6.63201 3.34998H4.71201C4.47501 3.34998 4.28201 3.54198 4.28201 3.77998V6.53398C4.28201 6.77098 4.47501 6.96398 4.71201 6.96398H6.63101C6.86801 6.96398 7.06101 6.77198 7.06101 6.53398V3.77998C7.06201 3.54198 6.86901 3.34998 6.63201 3.34998ZM6.20201 4.20898V6.10398H5.14201V4.20898H6.20201Z" fill="#5E5E5E"/>
<path d="M6.63201 9.077H4.71201C4.47501 9.077 4.28201 9.269 4.28201 9.507V12.261C4.28201 12.498 4.47501 12.691 4.71201 12.691H6.63101C6.86801 12.691 7.06101 12.499 7.06101 12.261V9.507C7.06201 9.27 6.86901 9.077 6.63201 9.077ZM6.20201 9.937V11.832H5.14201V9.937H6.20201Z" fill="#5E5E5E"/>
</svg>
