<svg width="16" height="16" viewBox="0 0 16 16" fill="none" xmlns="http://www.w3.org/2000/svg">
<path d="M1.25 14.75H14.75V1.25H1.25V14.75ZM3.699 9.265C3.801 9.183 3.95 9.199 4.032 9.301L6.1 11.87L11.959 3.6C12.035 3.493 12.183 3.468 12.289 3.544C12.396 3.62 12.421 3.767 12.345 3.874L6.305 12.4C6.262 12.461 6.193 12.498 6.119 12.5C6.117 12.5 6.114 12.5 6.112 12.5C6.04 12.5 5.973 12.468 5.927 12.412L3.663 9.598C3.581 9.496 3.597 9.347 3.699 9.265Z" fill="#7F7F7F"/>
<path d="M0.75 0.75V15.25H15.25V0.75H0.75ZM14.75 14.75H1.25V1.25H14.75V14.75Z" fill="#444444"/>
<path d="M12.405 3.37999C12.21 3.23899 11.936 3.28799 11.797 3.48399L6.09 11.538L4.188 9.17599C4.115 9.08499 4.011 9.02799 3.895 9.01499C3.781 9.00099 3.665 9.03599 3.573 9.10899C3.483 9.18199 3.425 9.28599 3.413 9.40299C3.4 9.51899 3.434 9.63299 3.507 9.72299L5.772 12.536C5.855 12.641 5.979 12.7 6.127 12.7C6.262 12.694 6.39 12.625 6.468 12.514L12.509 3.98899C12.648 3.79299 12.601 3.51999 12.405 3.37999Z" fill="#444444"/>
</svg>
