<svg width="16" height="16" viewBox="0 0 16 16" fill="none" xmlns="http://www.w3.org/2000/svg">
<path d="M8 15.5C12.1421 15.5 15.5 12.1421 15.5 8C15.5 3.85786 12.1421 0.5 8 0.5C3.85786 0.5 0.5 3.85786 0.5 8C0.5 12.1421 3.85786 15.5 8 15.5Z" fill="#EFEFEF"/>
<path d="M8 15.75C3.727 15.75 0.25 12.273 0.25 8C0.25 3.727 3.727 0.25 8 0.25C12.273 0.25 15.75 3.727 15.75 8C15.75 12.273 12.274 15.75 8 15.75ZM8 0.75C4.003 0.75 0.75 4.002 0.75 8C0.75 11.998 4.003 15.25 8 15.25C11.997 15.25 15.25 11.998 15.25 8C15.25 4.002 11.998 0.75 8 0.75Z" fill="#5E5E5E"/>
<path d="M12.577 11.985L8.592 8.00001L12.561 4.03001C12.64 3.95101 12.684 3.84501 12.684 3.73401C12.684 3.62201 12.64 3.51701 12.561 3.43901C12.482 3.35901 12.377 3.31501 12.265 3.31501C12.153 3.31501 12.048 3.35901 11.968 3.43801L8 7.40701L4.015 3.42201C3.851 3.26001 3.586 3.25901 3.422 3.42301C3.259 3.58601 3.259 3.85201 3.422 4.01601L7.408 8.00001L3.457 11.951C3.378 12.03 3.334 12.135 3.334 12.247C3.334 12.359 3.377 12.464 3.456 12.543C3.613 12.702 3.89 12.703 4.049 12.544L8 8.59301L11.984 12.577C12.064 12.656 12.169 12.7 12.28 12.7C12.393 12.7 12.498 12.656 12.575 12.578C12.655 12.499 12.699 12.393 12.699 12.28C12.7 12.168 12.656 12.063 12.577 11.985Z" fill="#5E5E5E"/>
</svg>
