<svg width="16" height="16" viewBox="0 0 16 16" fill="none" xmlns="http://www.w3.org/2000/svg">
<path d="M15.269 8C15.269 4.002 12.017 0.75 8.019 0.75C4.021 0.75 0.768997 4.002 0.768997 8C0.768997 11.998 4.021 15.25 8.019 15.25C12.017 15.25 15.269 11.998 15.269 8ZM4.469 8.969C3.934 8.969 3.5 8.535 3.5 8C3.5 7.465 3.934 7.031 4.469 7.031C5.004 7.031 5.438 7.465 5.438 8C5.438 8.535 5.005 8.969 4.469 8.969ZM8.193 8.969C7.657 8.969 7.223 8.535 7.223 8C7.223 7.465 7.657 7.031 8.192 7.031C8.727 7.031 9.161 7.465 9.161 8C9.161 8.535 8.728 8.969 8.193 8.969ZM11.531 8.969C10.996 8.969 10.562 8.535 10.562 8C10.562 7.465 10.996 7.031 11.531 7.031C12.066 7.031 12.5 7.465 12.5 8C12.5 8.535 12.066 8.969 11.531 8.969Z" fill="#EFEFEF"/>
<path d="M8.019 0.25C3.746 0.25 0.268997 3.727 0.268997 8C0.268997 12.273 3.746 15.75 8.019 15.75C12.292 15.75 15.769 12.273 15.769 8C15.769 3.727 12.293 0.25 8.019 0.25ZM0.768997 8C0.768997 4.002 4.021 0.75 8.019 0.75C12.017 0.75 15.269 4.002 15.269 8C15.269 11.998 12.017 15.25 8.019 15.25C4.021 15.25 0.768997 11.998 0.768997 8Z" fill="#5E5E5E"/>
<path d="M4.469 8.96901C5.00416 8.96901 5.438 8.53517 5.438 8.00001C5.438 7.46484 5.00416 7.03101 4.469 7.03101C3.93384 7.03101 3.5 7.46484 3.5 8.00001C3.5 8.53517 3.93384 8.96901 4.469 8.96901Z" fill="#5E5E5E"/>
<path d="M8.19299 7.03101C7.65699 7.03101 7.22299 7.46501 7.22299 8.00001C7.22299 8.53501 7.65699 8.96901 8.19199 8.96901C8.72699 8.96901 9.16099 8.53501 9.16099 8.00001C9.16099 7.46501 8.72799 7.03101 8.19299 7.03101Z" fill="#5E5E5E"/>
<path d="M11.531 7.03101C10.996 7.03101 10.562 7.46501 10.562 8.00001C10.562 8.53501 10.996 8.96901 11.531 8.96901C12.066 8.96901 12.5 8.53501 12.5 8.00001C12.5 7.46501 12.066 7.03101 11.531 7.03101Z" fill="#5E5E5E"/>
</svg>
