<svg width="16" height="16" viewBox="0 0 16 16" fill="none" xmlns="http://www.w3.org/2000/svg">
<path d="M5.70401 11.708L12.795 7.80799L5.70401 3.90799V11.708Z" fill="#EFEFEF"/>
<path d="M8.00101 0.759995C4.00301 0.759995 0.751007 4.01199 0.751007 8.00999C0.751007 12.008 4.00301 15.26 8.00101 15.26C11.999 15.26 15.251 12.008 15.251 8.00999C15.251 4.01199 11.999 0.759995 8.00101 0.759995ZM13.365 8.00399L5.58801 12.281C5.55401 12.299 5.51801 12.309 5.48101 12.309C5.44201 12.309 5.40201 12.299 5.36701 12.278C5.29901 12.238 5.25801 12.165 5.25801 12.086V3.53099C5.25801 3.45199 5.30001 3.37899 5.36701 3.33899C5.43501 3.29899 5.51901 3.29799 5.58801 3.33599L13.365 7.61299C13.436 7.65199 13.481 7.72699 13.481 7.80799C13.481 7.88999 13.437 7.96399 13.365 8.00399Z" fill="#EFEFEF"/>
<path d="M8.00101 0.259995C3.72801 0.259995 0.251007 3.73699 0.251007 8.00999C0.251007 12.283 3.72801 15.76 8.00101 15.76C12.274 15.76 15.751 12.283 15.751 8.00999C15.751 3.73699 12.274 0.259995 8.00101 0.259995ZM8.00101 15.26C4.00301 15.26 0.751007 12.008 0.751007 8.00999C0.751007 4.01199 4.00301 0.759995 8.00101 0.759995C11.999 0.759995 15.251 4.01199 15.251 8.00999C15.251 12.008 11.999 15.26 8.00101 15.26Z" fill="#5E5E5E"/>
<path d="M13.462 7.43799L5.68501 3.15999C5.55501 3.08999 5.39401 3.09099 5.26601 3.16699C5.13701 3.24199 5.05801 3.38199 5.05801 3.53099V12.085C5.05801 12.234 5.13801 12.374 5.26701 12.45C5.33101 12.487 5.40601 12.508 5.48101 12.508C5.55201 12.508 5.62301 12.489 5.68501 12.455L13.462 8.17899C13.597 8.10499 13.682 7.96199 13.682 7.80799C13.682 7.65399 13.597 7.51199 13.462 7.43799ZM12.38 7.80799L5.90401 11.37V4.24599L12.38 7.80799Z" fill="#5E5E5E"/>
</svg>
