<svg width="16" height="16" viewBox="0 0 16 16" fill="none" xmlns="http://www.w3.org/2000/svg">
<path d="M1.25 14.75H14.75V1.25H1.25V14.75ZM3.667 3.564C3.753 3.478 3.891 3.478 3.977 3.564L8.103 7.69L12.213 3.58C12.299 3.494 12.437 3.494 12.523 3.58C12.609 3.666 12.609 3.804 12.523 3.89L8.413 8L12.539 12.126C12.625 12.212 12.625 12.35 12.539 12.436C12.496 12.479 12.44 12.5 12.384 12.5C12.328 12.5 12.272 12.479 12.229 12.436L8.103 8.31L4.01 12.402C3.967 12.445 3.911 12.466 3.855 12.466C3.799 12.466 3.743 12.445 3.7 12.402C3.614 12.316 3.614 12.178 3.7 12.092L7.793 8L3.667 3.874C3.582 3.788 3.582 3.65 3.667 3.564Z" fill="#7F7F7F"/>
<path d="M0.75 0.75V15.25H15.25V0.75H0.75ZM14.75 14.75H1.25V1.25H14.75V14.75Z" fill="#444444"/>
<path d="M12.681 11.985L8.695 8L12.664 4.03C12.743 3.951 12.787 3.845 12.787 3.734C12.787 3.622 12.743 3.517 12.664 3.439C12.506 3.279 12.229 3.28 12.071 3.438L8.103 7.407L4.118 3.421C3.954 3.261 3.69 3.26 3.526 3.422C3.362 3.586 3.362 3.852 3.526 4.016L7.511 8L3.56 11.951C3.481 12.03 3.437 12.135 3.437 12.247C3.437 12.359 3.48 12.464 3.56 12.544C3.72 12.701 3.998 12.7 4.153 12.544L8.104 8.593L12.088 12.577C12.168 12.656 12.273 12.7 12.385 12.7C12.497 12.7 12.602 12.656 12.681 12.577C12.76 12.498 12.804 12.393 12.804 12.281C12.803 12.17 12.76 12.065 12.681 11.985Z" fill="#444444"/>
</svg>
