<svg width="16" height="16" viewBox="0 0 16 16" fill="none" xmlns="http://www.w3.org/2000/svg">
<path fill-rule="evenodd" clip-rule="evenodd" d="M14.437 14.437H1.562V1.562H14.437V14.437ZM5.65601 10.451C5.59601 10.487 5.527 10.506 5.456 10.506C5.319 10.506 5.19 10.432 5.12 10.315C5.067 10.225 5.05101 10.12 5.07701 10.019C5.10301 9.91699 5.16601 9.83199 5.25601 9.77899L8.153 8.04999V3.88499C8.153 3.66899 8.32701 3.49399 8.54301 3.49399C8.75901 3.49399 8.93401 3.66999 8.93401 3.88499V8.27199C8.93401 8.40899 8.86201 8.53799 8.74401 8.60799L5.65601 10.451Z" fill="white"/>
<path d="M5.456 10.506C5.527 10.506 5.59601 10.487 5.65601 10.451L8.74401 8.60799C8.86201 8.53799 8.93401 8.40899 8.93401 8.27199V3.88499C8.93401 3.66999 8.75901 3.49399 8.54301 3.49399C8.32701 3.49399 8.153 3.66899 8.153 3.88499V8.04999L5.25601 9.77899C5.16601 9.83199 5.10301 9.91699 5.07701 10.019C5.05101 10.12 5.067 10.225 5.12 10.315C5.19 10.432 5.319 10.506 5.456 10.506Z" fill="#6A6A6A"/>
<path d="M14.812 0.811996H1.188C0.981002 0.811996 0.813004 0.979998 0.813004 1.187V14.812C0.813004 15.019 0.981002 15.187 1.188 15.187H14.813C15.02 15.187 15.188 15.019 15.188 14.812V1.187C15.188 0.979998 15.02 0.811996 14.812 0.811996ZM14.438 14.437H1.562V1.562H14.437V14.437H14.438Z" fill="#6A6A6A"/>
</svg>
