<svg width="16" height="16" viewBox="0 0 16 16" fill="none" xmlns="http://www.w3.org/2000/svg">
<path d="M8.019 15.26C12.0231 15.26 15.269 12.0141 15.269 8.00999C15.269 4.00593 12.0231 0.759995 8.019 0.759995C4.01493 0.759995 0.768999 4.00593 0.768999 8.00999C0.768999 12.0141 4.01493 15.26 8.019 15.26Z" fill="#EFEFEF"/>
<path d="M8.019 0.259995C3.746 0.259995 0.268999 3.73699 0.268999 8.00999C0.268999 12.283 3.746 15.76 8.019 15.76C12.292 15.76 15.769 12.283 15.769 8.00999C15.769 3.73699 12.293 0.259995 8.019 0.259995ZM0.768999 8.00999C0.768999 4.01199 4.021 0.759995 8.019 0.759995C12.017 0.759995 15.269 4.01199 15.269 8.00999C15.269 12.008 12.017 15.26 8.019 15.26C4.021 15.26 0.768999 12.008 0.768999 8.00999Z" fill="#5E5E5E"/>
</svg>
