<svg width="16" height="16" viewBox="0 0 16 16" fill="none" xmlns="http://www.w3.org/2000/svg">
<path fill-rule="evenodd" clip-rule="evenodd" d="M8 15.196C4.032 15.196 0.804001 11.968 0.804001 8C0.804001 4.032 4.032 0.804001 8 0.804001C11.968 0.804001 15.196 4.032 15.196 8C15.196 11.968 11.968 15.196 8 15.196ZM8.154 3.88499C8.154 3.66899 8.329 3.49399 8.544 3.49399C8.76 3.49399 8.935 3.66999 8.934 3.88499V8.27199C8.934 8.40899 8.862 8.53799 8.744 8.60799L5.656 10.451C5.596 10.487 5.527 10.506 5.456 10.506C5.319 10.506 5.19 10.433 5.12 10.315C5.067 10.225 5.051 10.12 5.077 10.019C5.103 9.91699 5.166 9.83199 5.256 9.77899L8.154 8.04999V3.88499Z" fill="white"/>
<path d="M8.544 3.49399C8.329 3.49399 8.154 3.66899 8.154 3.88499V8.04999L5.256 9.77899C5.166 9.83199 5.103 9.91699 5.077 10.019C5.051 10.12 5.067 10.225 5.12 10.315C5.19 10.433 5.319 10.506 5.456 10.506C5.527 10.506 5.596 10.487 5.656 10.451L8.744 8.60799C8.862 8.53799 8.934 8.40899 8.934 8.27199V3.88499C8.935 3.66999 8.76 3.49399 8.544 3.49399Z" fill="#6A6A6A"/>
<path d="M8 0C3.589 0 0 3.589 0 8C0 12.411 3.589 16 8 16C12.411 16 16 12.411 16 8C16 3.589 12.411 0 8 0ZM8 15.196C4.032 15.196 0.805 11.968 0.805 8C0.805 4.032 4.032 0.804 8 0.804C11.968 0.804 15.196 4.032 15.196 7.999C15.196 11.966 11.968 15.196 8 15.196Z" fill="#6A6A6A"/>
</svg>
