<svg width="16" height="16" viewBox="0 0 16 16" fill="none" xmlns="http://www.w3.org/2000/svg">
<path d="M12.036 3.96298H3.963V12.036H12.036V3.96298Z" fill="#EFEFEF"/>
<path d="M8.039 0.759995C4.041 0.759995 0.789001 4.01199 0.789001 8.00999C0.789001 12.008 4.041 15.26 8.039 15.26C12.037 15.26 15.289 12.008 15.289 8.00999C15.289 4.01199 12.036 0.759995 8.039 0.759995ZM12.5 12.084C12.5 12.314 12.314 12.5 12.084 12.5H3.916C3.686 12.5 3.5 12.314 3.5 12.084V3.91599C3.5 3.68599 3.686 3.49999 3.916 3.49999H12.083C12.313 3.49999 12.499 3.68599 12.499 3.91599V12.084H12.5Z" fill="#EFEFEF"/>
<path d="M8.039 0.259995C3.766 0.259995 0.289001 3.73699 0.289001 8.00999C0.289001 12.283 3.766 15.76 8.039 15.76C12.312 15.76 15.789 12.283 15.789 8.00999C15.789 3.73699 12.312 0.259995 8.039 0.259995ZM8.039 15.26C4.041 15.26 0.789001 12.008 0.789001 8.00999C0.789001 4.01199 4.041 0.759995 8.039 0.759995C12.037 0.759995 15.289 4.01199 15.289 8.00999C15.289 12.008 12.036 15.26 8.039 15.26Z" fill="#5E5E5E"/>
<path d="M12.084 3.29999H3.916C3.576 3.29999 3.3 3.57599 3.3 3.91599V12.084C3.3 12.424 3.576 12.7 3.916 12.7H12.083C12.423 12.7 12.7 12.424 12.7 12.084V3.91599C12.7 3.57599 12.423 3.29999 12.084 3.29999ZM11.837 4.16299V11.836H4.164V4.16299H11.837Z" fill="#5E5E5E"/>
</svg>
