<svg version="1.2" baseProfile="tiny" viewBox="0 0 16.0 16.0" xmlns:xlink="http://www.w3.org/1999/xlink" xmlns="http://www.w3.org/2000/svg">
<path style="fill:#ffffff;" d="M8 15.196C4.032 15.196 0.804001 11.968 0.804001 8C0.804001 4.032 4.032 0.804001 8 0.804001C11.968 0.804001 15.196 4.032 15.196 8C15.196 11.968 11.968 15.196 8 15.196ZM8.154 3.88499C8.154 3.66899 8.329 3.49399 8.544 3.49399C8.76 3.49399 8.935 3.66999 8.934 3.88499V8.27199C8.934 8.40899 8.862 8.53799 8.744 8.60799L5.656 10.451C5.596 10.487 5.527 10.506 5.456 10.506C5.319 10.506 5.19 10.433 5.12 10.315C5.067 10.225 5.051 10.12 5.077 10.019C5.103 9.91699 5.166 9.83199 5.256 9.77899L8.154 8.04999V3.88499Z"/>
</svg>