<svg version="1.2" baseProfile="tiny" viewBox="0 0 17.473 18.000" xmlns:xlink="http://www.w3.org/1999/xlink" xmlns="http://www.w3.org/2000/svg">
<path style="fill:#ffffff;" d="M0.398,15.083c0.221,0,0.399,0.563,0.399,1.256c0,0.694-0.179,1.257-0.399,1.257S0,17.034,0,16.34   C0,15.646,0.178,15.083,0.398,15.083z M15.816,16.007V3.89c0,0-13.312-0.01-13.589-0.01c-0.558,0-0.78-0.708-0.78-1.581v12.378H0.88   c0,0,0.555,0,0.555,1.661C1.435,18,0.88,18,0.88,18h2.491h11.899c0,0,0.555-0.007,0.555-1.662   C15.825,16.219,15.822,16.11,15.816,16.007z M2.722,0c0,0,0.568,0,0.568,1.661c0,1.662-0.568,1.662-0.568,1.662h2.554h11.629   c0,0,0.568-0.007,0.568-1.662S16.904,0,16.904,0H5.275H2.722z M1.732,1.663c0,0.765,0.197,1.384,0.439,1.384   c0.243,0,0.439-0.619,0.439-1.384c0-0.764-0.196-1.383-0.439-1.383C1.93,0.279,1.732,0.898,1.732,1.663z"/>
</svg>