<?xml version="1.0" encoding="UTF-8"?>
<svg xmlns="http://www.w3.org/2000/svg" version="1.1" viewBox="0 0 612 792">
  <defs>
    <style>
      .cls-1 {
        fill: #e64625;
      }

      .cls-1, .cls-2, .cls-3, .cls-4 {
        fill-rule: evenodd;
      }

      .cls-5, .cls-2 {
        fill: #fff;
      }

      .cls-6 {
        fill: #212120;
      }

      .cls-3 {
        fill: #e14325;
      }

      .cls-4 {
        fill: #5f6060;
      }
    </style>
  </defs>
  <!-- Generator: Adobe Illustrator 28.6.0, SVG Export Plug-In . SVG Version: 1.2.0 Build 709)  -->
  <g>
    <g id="Foreground">
      <path class="cls-2" d="M329.74,530.33l4.44-9.42.81,9.42h-5.25ZM319.53,543.82h-28.08l6.25-32.48h24.14l-1.44,7.48h-14.48l-.91,4.74h11.72l-1.39,7.24h-11.72l-1.01,5.25h16.8l12.35-24.71h10.41l3.83,32.48h-10.08l-.6-6.39h-8.58l-3.2,6.39h-4Z"/>
      <path class="cls-5" d="M390.19,544.17c-6.43.01-12.34-.57-12.93-.65l-1.8-7.7c1.46.1,10.12,1.25,15.99,1.09,1.24-.03,2.07-.22,2.64-.43.82-.28,1.55-.84,1.72-1.71.39-2-2.06-2.38-3.47-2.66-5.9-1.19-12.85-2.85-11.34-10.6.62-3.18,2.8-6.32,5.77-8.17,3.02-1.85,6.61-2.47,9.84-2.47,5.65,0,10.67,2.33,11.56,7.98l-8.76,2.52c-.48-2.42-2.12-3.28-4.64-3.28-1.33,0-3.3.38-3.64,2.09-.33,1.71,1.98,2.04,3.16,2.33,2.97.62,6.15,1.14,8.71,2.61,2.85,1.71,3.92,4.75,3.23,8.32-1.02,5.23-5.09,8.37-9.7,9.88-.47.16-3.48.85-6.34.85Z"/>
      <path class="cls-2" d="M274.65,532.03h5.02c3.09,0,6.37-.47,9.25-2.51,2.76-1.94,4.5-4.88,5.09-7.95.67-3.5-.49-6.72-3.14-8.52-2.46-1.61-5.95-1.71-9.09-1.71h-13.13l-6.25,32.48h9.98l2.27-11.79ZM275.98,525.07l1.21-6.3h2.86c2.25,0,4.64.24,4.09,3.12-.58,3.03-3.33,3.17-5.58,3.17h-2.58Z"/>
      <path class="cls-2" d="M374.98,543.82l-3.09-14.16c4.13-1.75,6.5-4.31,7.32-8.57.61-3.17-.1-6.06-2.44-7.77-2.08-1.61-5.1-1.99-7.91-1.99h-16.36l-6.25,32.48h9.99l2.46-13.01h2.68l2.64,13.01h10.97ZM359.95,524.46l1.19-6.2h3.98c.94,0,1.97,0,2.73.43.88.52,1.25,1.56,1.04,2.65-.54,2.79-3.18,3.12-5.33,3.12h-3.61Z"/>
      <path class="cls-2" d="M426.48,510.87c-9.8,0-16.74,7.1-18.61,16.81-1.78,9.23,2.43,16.62,12.18,16.62s16.8-7.38,18.57-16.62c1.87-9.71-2.34-16.81-12.14-16.81ZM425.07,518.21c4.36,0,3.61,6.34,3,9.52-.6,3.12-2.09,9.14-6.59,9.14s-3.67-6.01-3.07-9.14c.61-3.17,2.3-9.52,6.66-9.52Z"/>
      <path class="cls-2" d="M465.15,543.82l6.25-32.48h-8.02l-1.74,9.04-1.03,9-.11.1-7.29-18.13h-9.33l-6.25,32.48h8.02l2.91-15.15c.43-2.22.46-3.36.39-5.44l-.02-.38.11-.1,1.73,5.87,6.31,15.2h8.06Z"/>
      <path class="cls-1" d="M263.47,554.05l.48-2.4h1.05c.85,0,1.27.38,1.24,1.13-.03.86-.52,1.27-1.46,1.27h-1.31ZM259.7,559.38h2.7l.67-3.41h1.75c2.64,0,4.11-1.19,4.19-3.26.08-1.95-1.31-2.99-4.12-2.99h-3.29l-1.91,9.66Z"/>
      <path class="cls-1" d="M271.16,559.38h2.34l.87-1.76h2.96l.2,1.76h2.6l-1.15-9.66h-2.93l-4.88,9.66ZM275.38,555.5l1.05-2.19c.17-.34.31-.77.47-1.25,0,.47,0,.89.04,1.24l.2,2.2h-1.76Z"/>
      <path class="cls-1" d="M290.99,555.89c-.44,1.09-1.07,1.65-1.86,1.65-1.03,0-1.56-.7-1.51-2.01.1-2.43,1.04-3.98,2.1-3.98.83,0,1.22.53,1.19,1.6l2.39-.18c0-2.14-1.34-3.42-3.54-3.42-1.41,0-2.63.6-3.54,1.74-.87,1.08-1.37,2.45-1.43,3.89-.11,2.76,1.37,4.45,3.86,4.45,2.13,0,3.66-1.17,4.35-3.33l-2.03-.39Z"/>
      <polygon class="cls-1" points="296.98 559.38 299.69 559.38 300.18 556.92 301.65 555.34 302.79 559.38 305.58 559.38 303.76 553.23 307.07 549.72 304.19 549.72 300.84 553.48 301.6 549.72 298.89 549.72 296.98 559.38"/>
      <path class="cls-1" d="M309.03,559.38h2.34l.87-1.76h2.96l.2,1.76h2.6l-1.15-9.66h-2.93l-4.88,9.66ZM313.25,555.5l1.05-2.19c.17-.34.31-.77.47-1.25,0,.47,0,.89.04,1.24l.2,2.2h-1.76Z"/>
      <path class="cls-1" d="M330.99,554.51h-3.92l-.33,1.62h1.5c-.28.99-.86,1.51-1.65,1.51-.93,0-1.41-.68-1.36-1.99.1-2.56,1.03-4.11,2.12-4.11.83,0,1.22.53,1.19,1.6l2.39-.18c0-2.14-1.34-3.42-3.54-3.42-1.41,0-2.63.6-3.54,1.74-.87,1.08-1.37,2.45-1.43,3.89-.11,2.72,1.42,4.45,3.67,4.45.9,0,1.76-.32,2.65-.94l.39.81h.86l.99-4.98Z"/>
      <polygon class="cls-1" points="335.24 559.38 337.98 559.38 339.9 549.72 337.15 549.72 335.24 559.38"/>
      <path class="cls-1" d="M345.62,559.38l.91-4.54c.08-.36.13-.81.18-1.33.12.49.28.96.48,1.41l2,4.46h2.26l1.91-9.66h-2.26l-.8,4.14c-.08.44-.16.86-.19,1.27-.11-.39-.25-.79-.43-1.19l-1.91-4.22h-2.5l-1.9,9.66h2.26Z"/>
      <path class="cls-1" d="M365.74,554.51h-3.92l-.33,1.62h1.5c-.28.99-.86,1.51-1.65,1.51-.93,0-1.41-.68-1.36-1.99.1-2.56,1.03-4.11,2.12-4.11.83,0,1.22.53,1.19,1.6l2.39-.18c0-2.14-1.34-3.42-3.54-3.42-1.41,0-2.63.6-3.54,1.74-.87,1.08-1.37,2.45-1.43,3.89-.11,2.72,1.42,4.45,3.67,4.45.9,0,1.77-.32,2.65-.94l.39.81h.86l.99-4.98Z"/>
      <path class="cls-1" d="M380.53,557.51c.76,1.37,2.14,2.1,3.98,2.1,2.45,0,4.07-1.36,4.14-3.29.05-1.24-.59-2.13-1.92-2.72-.67-.3-1.37-.39-1.92-.6-.29-.1-.48-.38-.47-.68.02-.44.4-.75,1.05-.75.8,0,1.46.36,1.93,1.04l1.71-1.3c-.64-1.12-1.88-1.76-3.46-1.76-2.25,0-3.81,1.39-3.89,3.28-.05,1.23.59,2.14,1.87,2.67.62.25,1.31.28,1.87.48.27.1.47.41.45.76-.02.53-.48.91-1.19.91-1.03,0-1.86-.49-2.39-1.48l-1.77,1.34Z"/>
      <polygon class="cls-1" points="394.59 559.38 397.27 559.38 398.15 555.21 402.15 549.72 399.49 549.72 397.36 552.74 396.17 549.72 393.25 549.72 395.44 555.12 394.59 559.38"/>
      <path class="cls-1" d="M404.34,557.51c.76,1.37,2.14,2.1,3.98,2.1,2.45,0,4.07-1.36,4.14-3.29.05-1.24-.59-2.13-1.92-2.72-.67-.3-1.37-.39-1.92-.6-.29-.1-.48-.38-.47-.68.02-.44.4-.75,1.05-.75.8,0,1.46.36,1.93,1.04l1.72-1.3c-.64-1.12-1.88-1.76-3.46-1.76-2.25,0-3.81,1.39-3.89,3.28-.05,1.23.59,2.14,1.87,2.67.62.25,1.31.28,1.87.48.28.1.47.41.45.76-.02.53-.48.91-1.19.91-1.03,0-1.86-.49-2.39-1.48l-1.77,1.34Z"/>
      <polygon class="cls-1" points="418.45 559.38 421.15 559.38 422.65 551.83 425.25 551.83 425.67 549.72 417.75 549.72 417.33 551.83 419.95 551.83 418.45 559.38"/>
      <polygon class="cls-1" points="428.25 559.38 435.19 559.38 435.59 557.39 431.35 557.39 431.72 555.51 434.23 555.51 434.63 553.52 432.11 553.52 432.48 551.72 436.48 551.72 436.87 549.72 430.17 549.72 428.25 559.38"/>
      <path class="cls-1" d="M441.99,559.38l1.18-5.93c.02-.11.07-.54.19-1.32.01.6.04,1.01.06,1.27l.78,5.98h1.56l3.17-6.31c.06-.1.21-.51.52-1.19-.06.25-.2.73-.34,1.45l-1.22,6.06h2.62l1.92-9.66h-4l-1.79,3.56c-.22.43-.4.89-.57,1.36,0-.47-.03-.93-.08-1.39l-.46-3.52h-3.66l-1.91,9.66h2.03Z"/>
      <path class="cls-1" d="M455.83,557.51c.76,1.37,2.14,2.1,3.98,2.1,2.45,0,4.07-1.36,4.14-3.29.05-1.24-.59-2.13-1.92-2.72-.67-.3-1.37-.39-1.92-.6-.29-.1-.48-.38-.47-.68.02-.44.4-.75,1.05-.75.8,0,1.46.36,1.93,1.04l1.72-1.3c-.64-1.12-1.88-1.76-3.46-1.76-2.25,0-3.81,1.39-3.89,3.28-.05,1.23.59,2.14,1.87,2.67.62.25,1.31.28,1.87.48.27.1.47.41.45.76-.02.53-.48.91-1.19.91-1.03,0-1.86-.49-2.39-1.48l-1.77,1.34Z"/>
      <g>
        <path class="cls-6" d="M161,529.58c0-23.52,19.07-42.58,42.58-42.58s42.58,19.07,42.58,42.58-19.06,42.58-42.58,42.58-42.58-19.07-42.58-42.58Z"/>
        <g>
          <path class="cls-3" d="M161,529.58c0-23.52,19.07-42.58,42.58-42.58s42.58,19.07,42.58,42.58-19.06,42.58-42.58,42.58-42.58-19.07-42.58-42.58Z"/>
          <path class="cls-3" d="M226.04,542.45"/>
        </g>
        <polygon class="cls-2" points="200.22 547.92 225.36 540.96 230.21 513.44 205.09 520.4 200.22 547.92"/>
        <polygon class="cls-4" points="207.66 505.81 205.47 518.25 227.94 512.03 207.66 505.81"/>
        <polygon class="cls-4" points="205.66 505.81 182.45 512.23 203.4 518.65 205.66 505.81"/>
      </g>
      <path class="cls-5" d="M180.38,513.66l22.67,6.95-8.93,50.5c-8.47-1.92-15.97-6.36-21.69-12.5l7.95-44.96Z"/>
    </g>
  </g>
</svg>